<svg width="31" height="30" viewBox="0 0 31 30" fill="none" xmlns="http://www.w3.org/2000/svg">
<g clip-path="url(#clip0_97_385)">
<path d="M15.8274 29.8036C23.9972 29.8036 30.6202 23.1807 30.6202 15.0109C30.6202 6.84107 23.9972 0.21814 15.8274 0.21814C7.65764 0.21814 1.03471 6.84107 1.03471 15.0109C1.03471 23.1807 7.65764 29.8036 15.8274 29.8036Z" fill="url(#paint0_linear_97_385)" stroke="#D49944" stroke-width="0.5" stroke-miterlimit="10"/>
<path d="M15.7838 24.7636C21.158 24.7636 25.5147 20.4069 25.5147 15.0327C25.5147 9.65843 21.158 5.30176 15.7838 5.30176C10.4096 5.30176 6.05289 9.65843 6.05289 15.0327C6.05289 20.4069 10.4096 24.7636 15.7838 24.7636Z" fill="#4A98AD"/>
<path d="M8.06017 17.3891C8.51835 17.6728 9.21653 17.9346 9.95835 17.9346C10.8747 17.9346 11.3765 17.4546 11.3765 16.7564C11.3765 16.1019 10.9838 15.731 9.98017 15.3382C8.69289 14.8364 7.8638 14.0728 7.8638 12.851C7.8638 11.4546 8.93289 10.3855 10.6347 10.3855C11.4856 10.3855 12.1183 10.5819 12.5111 10.8219L12.162 12.0873C11.8783 11.9128 11.3329 11.6728 10.6129 11.6728C9.71835 11.6728 9.3038 12.1964 9.3038 12.6982C9.3038 13.3528 9.76198 13.6582 10.8093 14.1164C12.162 14.6837 12.8383 15.4255 12.8383 16.6473C12.8383 18.0219 11.8783 19.2219 9.87107 19.2219C9.04198 19.2219 8.19107 18.96 7.75471 18.6982L8.06017 17.3891Z" fill="white" stroke="#007290" stroke-width="0.4" stroke-miterlimit="10"/>
<path d="M13.5365 17.3891C13.9947 17.6728 14.6929 17.9346 15.4347 17.9346C16.3511 17.9346 16.8529 17.4546 16.8529 16.7564C16.8529 16.1019 16.4602 15.731 15.4565 15.3382C14.1693 14.8364 13.3402 14.0728 13.3402 12.851C13.3402 11.4546 14.4093 10.3855 16.1111 10.3855C16.962 10.3855 17.5947 10.5819 17.9874 10.8219L17.6383 12.0873C17.3547 11.9128 16.8093 11.6728 16.0893 11.6728C15.1947 11.6728 14.7802 12.1964 14.7802 12.6982C14.7802 13.3528 15.2383 13.6582 16.2856 14.1164C17.6383 14.6837 18.3147 15.4255 18.3147 16.6473C18.3147 18.0219 17.3547 19.2219 15.3474 19.2219C14.5183 19.2219 13.6674 18.96 13.2311 18.6982L13.5365 17.3891Z" fill="white" stroke="#007290" stroke-width="0.4" stroke-miterlimit="10"/>
<path d="M19.0783 10.5382H20.4965V17.7818H23.7038V19.0909H19.0783V10.5382Z" fill="white" stroke="#007290" stroke-width="0.4" stroke-miterlimit="10"/>
<path d="M3.23835 16.1455C3.82879 16.1455 4.30744 15.6669 4.30744 15.0764C4.30744 14.486 3.82879 14.0073 3.23835 14.0073C2.6479 14.0073 2.16925 14.486 2.16925 15.0764C2.16925 15.6669 2.6479 16.1455 3.23835 16.1455Z" fill="#006F8A"/>
<path d="M28.1111 16.1455C28.7015 16.1455 29.1802 15.6669 29.1802 15.0764C29.1802 14.486 28.7015 14.0073 28.1111 14.0073C27.5206 14.0073 27.042 14.486 27.042 15.0764C27.042 15.6669 27.5206 16.1455 28.1111 16.1455Z" fill="#006F8A"/>
<path d="M2.78017 11.8909C2.80198 11.6727 2.86744 11.4109 2.97653 11.1272C3.12926 10.669 3.28198 10.3854 3.5438 10.2109C3.82744 10.0145 4.15471 9.94904 4.59108 10.0799C5.04926 10.2327 5.33289 10.4945 5.44198 10.7999C5.57289 11.1054 5.55108 11.5418 5.39835 12.0218C5.31108 12.3054 5.2238 12.5018 5.15835 12.6327L2.78017 11.8909ZM4.94017 11.9345C4.96198 11.8909 4.9838 11.8036 5.00562 11.7381C5.18017 11.2363 4.9838 10.8436 4.41653 10.6472C3.91471 10.4727 3.56562 10.7127 3.41289 11.1709C3.36926 11.3018 3.36926 11.389 3.34744 11.4327L4.94017 11.9345Z" fill="#514F4F"/>
<path d="M5.66016 9.46907L6.14016 9.94907L5.85653 10.4727L4.0238 8.53089L4.39471 7.87634L6.99107 8.46543L6.68562 9.01089L6.00925 8.85816L5.66016 9.46907ZM5.59471 8.68362L5.04925 8.55271C4.89653 8.50907 4.72198 8.46543 4.56925 8.4218C4.67835 8.53089 4.83107 8.6618 4.94016 8.74907L5.33289 9.1418L5.59471 8.68362Z" fill="#514F4F"/>
<path d="M5.7038 6.85087L5.26744 7.37451L4.89653 7.06905L6.14017 5.5636L6.51108 5.86905L6.07471 6.41451L7.66744 7.74542L7.29653 8.18178L5.7038 6.85087Z" fill="#514F4F"/>
<path d="M8.71471 5.25817L7.99471 5.86908L8.38744 6.32726L9.19471 5.6509L9.50016 5.99999L8.25653 7.04726L6.62016 5.10544L7.82016 4.10181L8.12562 4.4509L7.36198 5.10544L7.68925 5.49817L8.40925 4.88726L8.71471 5.25817Z" fill="#514F4F"/>
<path d="M9.71835 5.84725L8.49653 3.59998L9.08562 3.29453L9.98016 3.8618C10.242 4.03635 10.5256 4.23271 10.7656 4.42907C10.5693 4.14544 10.3947 3.8618 10.2202 3.53453L9.87107 2.87998L10.3293 2.61816L11.5511 4.86544L11.0493 5.14907L10.1111 4.53816C9.82744 4.36362 9.5438 4.16726 9.28198 3.94907C9.45653 4.23271 9.63107 4.55998 9.82744 4.90907L10.1765 5.58544L9.71835 5.84725Z" fill="#514F4F"/>
<path d="M11.7474 4.1455C11.922 4.16732 12.162 4.18914 12.402 4.10187C12.6638 4.01459 12.7511 3.86187 12.7074 3.73096C12.6638 3.57823 12.5111 3.51278 12.2056 3.49096C11.7693 3.46914 11.4202 3.31641 11.3329 2.96732C11.202 2.55278 11.4638 2.13823 12.0311 1.96368C12.3147 1.87641 12.5329 1.87641 12.6856 1.89823L12.7074 2.40005C12.5983 2.37823 12.3802 2.35641 12.162 2.44368C11.922 2.50914 11.8565 2.66187 11.8783 2.77096C11.922 2.92368 12.0965 2.96732 12.4238 2.98914C12.9038 3.01096 13.1874 3.1855 13.2747 3.53459C13.4056 3.92732 13.1874 4.3855 12.5111 4.58187C12.2274 4.66914 11.9438 4.69096 11.7693 4.64732L11.7474 4.1455Z" fill="#514F4F"/>
<path d="M13.9729 1.59277L14.3656 4.10186L13.7983 4.18914L13.4056 1.68005L13.9729 1.59277Z" fill="#514F4F"/>
<path d="M16.6347 3.94903C16.5256 4.01449 16.3074 4.05812 15.9802 4.07994C15.1074 4.07994 14.6274 3.5563 14.6274 2.81449C14.6274 1.96358 15.2383 1.43994 16.002 1.43994C16.2856 1.43994 16.5256 1.5054 16.6347 1.54903L16.5256 2.00721C16.3947 1.96358 16.242 1.91994 16.0456 1.91994C15.5874 1.91994 15.2165 2.20358 15.2383 2.77085C15.2383 3.27267 15.5438 3.59994 16.0674 3.59994C16.242 3.59994 16.4165 3.5563 16.5474 3.51267L16.6347 3.94903Z" fill="#514F4F"/>
<path d="M17.9656 1.65813L17.7693 2.59631L18.6856 2.79268L18.882 1.83268L19.4493 1.94177L18.9474 4.42904L18.3802 4.31995L18.5983 3.27268L17.682 3.07631L17.4638 4.12359L16.8965 4.01449L17.3983 1.52722L17.9656 1.65813Z" fill="#514F4F"/>
<path d="M21.1293 4.18913L20.2783 3.84004L20.0383 4.3855L20.9983 4.80004L20.802 5.23641L19.3183 4.58186L20.322 2.24731L21.762 2.88004L21.5656 3.31641L20.6711 2.92368L20.4529 3.40368L21.3038 3.77459L21.1293 4.18913Z" fill="#514F4F"/>
<path d="M22.4602 3.29456C22.6347 3.38183 22.8747 3.51274 23.1365 3.66546C23.442 3.88365 23.6383 4.05819 23.7038 4.29819C23.7693 4.49456 23.7256 4.6691 23.5947 4.86546C23.3983 5.1491 23.0929 5.19274 22.8747 5.1491C22.9838 5.32365 22.962 5.49819 22.8965 5.73819C22.8093 6.02183 22.6783 6.3491 22.6565 6.45819L22.1547 6.1091C22.1547 6.02183 22.2202 5.82546 22.3511 5.52001C22.482 5.21456 22.4383 5.08365 22.242 4.95274L22.0893 4.84365L21.5438 5.69456L21.0638 5.3891L22.4602 3.29456ZM22.3074 4.51637L22.5038 4.64728C22.7438 4.82183 22.962 4.77819 23.0929 4.60365C23.2238 4.40728 23.1583 4.23274 22.9402 4.08001C22.8093 3.99274 22.7438 3.97092 22.7002 3.9491L22.3074 4.51637Z" fill="#514F4F"/>
<path d="M25.0129 5.21459L24.2929 5.89096L24.9474 6.58914L25.6674 5.91278L26.0602 6.32732L24.2274 8.09459L23.8347 7.68005L24.6202 6.93823L23.9656 6.24005L23.1802 6.98187L22.7874 6.56732L24.6202 4.80005L25.0129 5.21459Z" fill="#514F4F"/>
<path d="M26.1911 9.09818L25.6893 8.2909L25.1874 8.59636L25.7547 9.46908L25.362 9.7309L24.5111 8.35636L26.6493 6.98181L27.4784 8.31272L27.0856 8.57454L26.562 7.74545L26.1256 8.02908L26.6274 8.83636L26.1911 9.09818Z" fill="#514F4F"/>
<path d="M28.002 9.5345L25.6893 10.5818L25.4493 10.0581L27.762 9.01086L28.002 9.5345Z" fill="#514F4F"/>
<path d="M27.9802 10.8218L27.7838 10.1673L28.242 10.0145L28.8093 11.8909L28.3511 12.0436L28.1547 11.3673L26.1911 11.9563L26.0165 11.4109L27.9802 10.8218Z" fill="#514F4F"/>
<path d="M28.9183 17.869C28.8965 18.0872 28.8311 18.349 28.722 18.6327C28.5693 19.0908 28.3947 19.3745 28.1547 19.5708C27.8711 19.7672 27.5438 19.8327 27.0856 19.7017C26.6274 19.549 26.3438 19.2654 26.2129 18.9817C26.082 18.6545 26.1038 18.2399 26.2565 17.7381C26.3438 17.4327 26.4311 17.2581 26.4965 17.1272L28.9183 17.869ZM26.7365 17.8036C26.7147 17.8472 26.6929 17.9345 26.6711 17.9999C26.4965 18.5017 26.6929 18.9163 27.2602 19.1127C27.762 19.2872 28.1329 19.0472 28.2856 18.589C28.3293 18.4581 28.3293 18.3708 28.3511 18.3272L26.7365 17.8036Z" fill="#514F4F"/>
<path d="M26.0165 20.3127L25.5365 19.8327L25.842 19.3091L27.6965 21.2945L27.3038 21.9491L24.6638 21.36L24.9911 20.8145L25.6674 20.9673L26.0165 20.3127ZM26.0602 21.0982L26.6056 21.2291C26.7583 21.2727 26.9547 21.3164 27.0856 21.36C26.9765 21.2509 26.8238 21.12 26.6929 21.0109L26.2783 20.5964L26.0602 21.0982Z" fill="#514F4F"/>
<path d="M25.9729 22.9746L26.4311 22.4509L26.8238 22.7782L25.5583 24.3055L25.1656 23.9782L25.6238 23.4327L24.0093 22.08L24.402 21.6218L25.9729 22.9746Z" fill="#514F4F"/>
<path d="M22.8965 24.5891L23.6165 23.9782L23.202 23.52L22.3947 24.1963L22.0674 23.8254L23.3329 22.7563L24.9911 24.7418L23.7693 25.7673L23.442 25.3963L24.2056 24.7418L23.8565 24.3273L23.1365 24.9382L22.8965 24.5891Z" fill="#514F4F"/>
<path d="M21.8929 24L23.1365 26.2691L22.5474 26.5964L21.6311 26.0291C21.3693 25.8545 21.0856 25.6364 20.8456 25.4618C21.042 25.7455 21.2383 26.0291 21.3911 26.3782L21.762 27.0327L21.3038 27.2945L20.0165 25.0473L20.5402 24.7418L21.5002 25.3527C21.7838 25.5273 22.0674 25.7455 22.3293 25.9418C22.1547 25.6364 21.9583 25.3309 21.7838 24.96L21.4129 24.2836L21.8929 24Z" fill="#514F4F"/>
<path d="M19.7983 25.7236C19.6238 25.7018 19.362 25.68 19.1438 25.7673C18.882 25.8545 18.7729 26.0073 18.8165 26.16C18.8602 26.3127 19.0129 26.3782 19.3183 26.4C19.7765 26.4218 20.1038 26.5745 20.2129 26.9236C20.3438 27.36 20.082 27.7745 19.5147 27.9491C19.2311 28.0363 19.0129 28.0363 18.8602 28.0145L18.8383 27.5345C18.9474 27.5563 19.1656 27.5782 19.3838 27.4909C19.6238 27.4254 19.7111 27.2727 19.6893 27.1418C19.6456 26.9891 19.4711 26.9454 19.1438 26.9236C18.6638 26.9018 18.3802 26.7273 18.2711 26.3782C18.1402 25.9636 18.3583 25.5054 19.0347 25.3091C19.3183 25.2218 19.602 25.2 19.7765 25.2436L19.7983 25.7236Z" fill="#514F4F"/>
<path d="M17.5511 28.2981L17.1365 25.7454L17.7038 25.6581L18.1183 28.2108L17.5511 28.2981Z" fill="#514F4F"/>
<path d="M14.8456 25.92C14.9547 25.8545 15.1947 25.8109 15.5002 25.7891C16.3947 25.7891 16.8529 26.3127 16.8529 27.0763C16.8529 27.9491 16.242 28.4509 15.4783 28.4509C15.1729 28.4509 14.9547 28.3854 14.8456 28.3418L14.9547 27.8836C15.0856 27.9272 15.2383 27.9709 15.4347 27.9709C15.8929 27.9709 16.2638 27.6654 16.242 27.0982C16.242 26.5963 15.9147 26.2691 15.4129 26.2691C15.2383 26.2691 15.042 26.3127 14.9329 26.3563L14.8456 25.92Z" fill="#514F4F"/>
<path d="M13.4929 28.2545L13.6893 27.2726L12.7511 27.0763L12.5547 28.0581L11.9874 27.949L12.4893 25.4181L13.0565 25.5272L12.8383 26.5963L13.7765 26.7926L13.9947 25.7235L14.562 25.8326L14.082 28.3635L13.4929 28.2545Z" fill="#514F4F"/>
<path d="M10.3074 25.6581L11.1802 26.0508L11.4202 25.5054L10.4383 25.069L10.6347 24.6108L12.1402 25.2654L11.1147 27.6217L9.65289 26.989L9.84925 26.5308L10.7874 26.9454L11.0056 26.4654L10.1329 26.0727L10.3074 25.6581Z" fill="#514F4F"/>
<path d="M8.93289 26.5963C8.75835 26.5091 8.49653 26.3782 8.25653 26.2036C7.92926 25.9854 7.75471 25.7891 7.68926 25.5709C7.6238 25.3745 7.66744 25.1782 7.79835 25.0036C7.99471 24.72 8.30016 24.6545 8.51835 24.72C8.40926 24.5454 8.43107 24.3491 8.49653 24.1309C8.5838 23.8473 8.71471 23.52 8.73653 23.4109L9.21653 23.76C9.21653 23.8473 9.15107 24.0654 9.02016 24.3491C8.88926 24.6545 8.93289 24.8073 9.12926 24.9163L9.28198 25.0254L9.84926 24.1745L10.3293 24.5018L8.93289 26.5963ZM9.08562 25.3309L8.88926 25.2C8.64926 25.0254 8.43107 25.0691 8.30016 25.2436C8.16926 25.44 8.23471 25.6363 8.45289 25.7673C8.5838 25.8545 8.64926 25.8763 8.69289 25.8982L9.08562 25.3309Z" fill="#514F4F"/>
<path d="M6.33653 24.6326L7.05653 23.9563L6.40198 23.2581L5.68198 23.9344L5.26744 23.4981L7.12198 21.709L7.53653 22.1453L6.75107 22.8872L7.40562 23.5853L8.19107 22.8435L8.60562 23.2799L6.75107 25.069L6.33653 24.6326Z" fill="#514F4F"/>
<path d="M5.18016 20.6836L5.68198 21.4909L6.1838 21.1636L5.61653 20.2909L6.03107 20.0291L6.92562 21.3818L4.7438 22.7563L3.89289 21.4036L4.30744 21.1418L4.83107 21.9927L5.28925 21.7091L4.76562 20.9454L5.18016 20.6836Z" fill="#514F4F"/>
<path d="M3.32562 20.2472L5.66016 19.1781L5.90016 19.7017L3.56562 20.7708L3.32562 20.2472Z" fill="#514F4F"/>
<path d="M3.34744 18.9164L3.5438 19.5709L3.08562 19.7236L2.51834 17.8255L2.97653 17.6727L3.17289 18.3491L5.18016 17.76L5.35471 18.3055L3.34744 18.9164Z" fill="#514F4F"/>
</g>
<defs>
<linearGradient id="paint0_linear_97_385" x1="13.4906" y1="5.2065" x2="18.5088" y2="26.261" gradientUnits="userSpaceOnUse">
<stop stop-color="#FCF2B4"/>
<stop offset="1" stop-color="#FCCE75"/>
</linearGradient>
<clipPath id="clip0_97_385">
<rect width="30" height="30" fill="white" transform="translate(0.816528)"/>
</clipPath>
</defs>
</svg>
