<svg width="31" height="30" viewBox="0 0 31 30" fill="none" xmlns="http://www.w3.org/2000/svg">
<g clip-path="url(#clip0_97_427)">
<path fill-rule="evenodd" clip-rule="evenodd" d="M15.8543 2.58045e-06C17.8294 -0.00115477 19.7855 0.387008 21.6105 1.1423C23.4356 1.89759 25.0939 3.0052 26.4906 4.40179C27.8873 5.79839 28.995 7.45659 29.7505 9.28158C30.5059 11.1066 30.8942 13.0626 30.8933 15.0377C30.1008 34.9862 1.61024 34.9862 0.816528 15.0377C0.818861 11.0502 2.40394 7.22665 5.22356 4.40703C8.04317 1.58741 11.8667 0.00233535 15.8543 2.58045e-06ZM15.98 5.62642C3.49955 6.11195 3.47439 23.9635 15.98 24.4755C18.4796 24.4755 20.8768 23.4825 22.6442 21.7151C24.4116 19.9477 25.4046 17.5505 25.4046 15.0509C25.4046 12.5514 24.4116 10.1542 22.6442 8.3868C20.8768 6.61935 18.4796 5.62642 15.98 5.62642Z" fill="url(#paint0_radial_97_427)"/>
<path fill-rule="evenodd" clip-rule="evenodd" d="M25.3939 15.0353C25.3916 17.5306 24.3993 19.923 22.6348 21.6875C20.8703 23.452 18.4779 24.4443 15.9826 24.4466C3.47691 23.9611 3.50207 6.10948 15.9826 5.59753C18.4794 5.60982 20.8701 6.60893 22.6331 8.37694C24.3962 10.145 25.3886 12.5384 25.3939 15.0353Z" fill="url(#paint1_radial_97_427)"/>
<path fill-rule="evenodd" clip-rule="evenodd" d="M25.8555 11.5861L26.8279 11.2792C26.856 11.4822 26.9249 11.6775 27.0304 11.8532C27.1359 12.0289 27.2758 12.1815 27.4417 12.3019C27.5521 12.3596 27.6732 12.3942 27.7976 12.4035C27.9219 12.4128 28.0468 12.3965 28.1646 12.3558C28.2824 12.315 28.3906 12.2506 28.4826 12.1665C28.5746 12.0824 28.6484 11.9803 28.6995 11.8667C28.9046 11.4893 28.4945 10.4604 28.3411 10.1534L25.6555 10.9975L25.8555 11.5861ZM28.1322 10.8704C28.2857 11.1522 28.3624 11.6126 27.9788 11.7396C27.6203 11.8654 27.365 11.488 27.3134 11.1258L28.1322 10.8704Z" fill="white"/>
<path fill-rule="evenodd" clip-rule="evenodd" d="M24.6014 9.17991C24.7437 9.40919 24.9503 9.59154 25.1954 9.70423C25.4406 9.81693 25.7135 9.85499 25.9802 9.81367C26.2468 9.77236 26.4954 9.6535 26.695 9.47189C26.8945 9.29029 27.0363 9.05397 27.1025 8.7924C27.1687 8.53082 27.1565 8.25554 27.0673 8.00086C26.9782 7.74618 26.8161 7.52336 26.6012 7.36017C26.3863 7.19697 26.1282 7.10061 25.8589 7.0831C25.5896 7.06559 25.3212 7.12769 25.087 7.26168C24.921 7.34773 24.7751 7.46798 24.659 7.6145C24.5429 7.76102 24.4591 7.93048 24.4133 8.11172C24.3674 8.29296 24.3604 8.48186 24.3929 8.66598C24.4253 8.8501 24.4964 9.02526 24.6014 9.17991ZM25.4455 7.79627C25.9058 7.48935 26.3914 7.46419 26.648 7.84784C27.1851 8.61513 25.5222 9.68935 25.0367 8.92205C24.8065 8.54092 24.9851 8.10696 25.4455 7.80004V7.79627Z" fill="white"/>
<path fill-rule="evenodd" clip-rule="evenodd" d="M22.0694 6.46917L22.8367 5.52326L23.6555 6.21382L22.9134 7.13458L23.3989 7.54338L25.1889 5.31823L24.7033 4.90942L24.0128 5.7786L23.1939 5.08804L23.8845 4.24401L23.3725 3.83521L21.5838 6.06036L22.0694 6.46917Z" fill="white"/>
<path fill-rule="evenodd" clip-rule="evenodd" d="M19.8958 5.29436C20.6115 5.60128 21.1235 5.37109 21.3021 4.93587C21.3771 4.74479 21.3848 4.53382 21.3237 4.33782C21.2626 4.14182 21.1365 3.97251 20.9662 3.85788C20.6845 3.57612 20.5889 3.44908 20.6341 3.2692C20.6857 3.14342 20.8643 3.06417 21.1197 3.16732C21.311 3.24068 21.4788 3.36458 21.6052 3.52581L21.9373 3.117C21.4517 2.55474 20.326 2.27298 19.9939 3.06543C19.8404 3.44279 20.0191 3.80757 20.3713 4.1648C20.653 4.41637 20.7297 4.54216 20.653 4.72707C20.448 5.16229 19.6807 4.62518 19.5272 4.39499L19.1951 4.83021C19.3931 5.03286 19.632 5.19108 19.8958 5.29436Z" fill="white"/>
<path fill-rule="evenodd" clip-rule="evenodd" d="M16.9536 1.91823C16.5763 1.54087 15.4958 1.55973 14.9071 1.63646L14.8568 4.4503C15.5588 4.60853 16.2943 4.5085 16.9285 4.16854C17.079 4.02305 17.1991 3.84915 17.2819 3.65692C17.3647 3.46468 17.4085 3.25793 17.4108 3.04863C17.4132 2.83934 17.374 2.63166 17.2955 2.43762C17.217 2.24358 17.1008 2.06704 16.9536 1.91823ZM15.726 3.98992C15.6483 3.99586 15.5703 3.98733 15.4958 3.96477L15.5209 2.0981C16.1599 1.99621 16.7486 2.25156 16.697 2.9937C16.7193 3.12732 16.7098 3.2643 16.6692 3.39355C16.6287 3.52281 16.5583 3.6407 16.4638 3.73771C16.3692 3.83471 16.2532 3.90808 16.125 3.9519C15.9968 3.99572 15.8601 4.00874 15.726 3.98992Z" fill="white"/>
<path fill-rule="evenodd" clip-rule="evenodd" d="M14.1662 4.55721L14.0128 4.04526L12.887 4.35218L12.7083 3.67671L13.731 3.42514L13.6052 2.91319L12.5826 3.16476L12.4291 2.6025L13.5285 2.32073L13.3738 1.78992L11.6857 2.25029L12.4014 5.01759L14.1662 4.55721Z" fill="white"/>
<path fill-rule="evenodd" clip-rule="evenodd" d="M9.4354 3.86164L10.5348 5.90818L11.097 5.5761L9.99892 3.55472L10.6895 3.17736L10.4329 2.71069L8.48949 3.75975L8.74106 4.22013L9.4354 3.86164Z" fill="white"/>
<path fill-rule="evenodd" clip-rule="evenodd" d="M7.79766 6.47043C8.12974 6.31697 8.30961 6.31697 8.43665 6.44527C8.76873 6.80376 7.95112 7.28929 7.66936 7.34087L7.92093 7.8264C8.18419 7.7388 8.42746 7.59985 8.63665 7.41759C9.22533 6.88049 9.22533 6.34338 8.88823 5.98489C8.74088 5.84242 8.55047 5.75281 8.34678 5.73005C8.14309 5.70729 7.9376 5.75267 7.76244 5.85911C7.38508 6.01257 7.22533 6.06414 7.09703 5.91068C6.81527 5.60376 7.53225 5.16854 7.73603 5.11822L7.48445 4.63269C6.76873 4.83772 6.05175 5.75848 6.64043 6.37231C6.92848 6.67546 7.33728 6.64904 7.79766 6.47043Z" fill="white"/>
<path fill-rule="evenodd" clip-rule="evenodd" d="M6.92974 9.46165C7.02966 9.32406 7.09756 9.16586 7.12847 8.99864C7.15939 8.83142 7.15252 8.65941 7.10839 8.49518C7.06426 8.33096 6.98398 8.17867 6.87341 8.04947C6.76285 7.92027 6.6248 7.81742 6.46936 7.74844L5.11339 6.90442L4.78131 7.44153L6.16496 8.31071C6.60018 8.59247 6.70206 8.87297 6.52345 9.15473C6.34483 9.43649 6.03791 9.46165 5.60269 9.20631L4.21905 8.33712L3.88697 8.87423L5.24295 9.71825C5.98257 10.2289 6.54609 10.0755 6.92974 9.46165Z" fill="white"/>
<path fill-rule="evenodd" clip-rule="evenodd" d="M5.62785 12.429L4.55363 12.1221L4.60521 11.9434C4.68194 11.6919 4.81024 11.6114 5.16747 11.6114C5.39745 11.6252 5.62806 11.6252 5.85804 11.6114L6.03665 10.9724C5.91087 10.9975 5.5247 10.9724 5.19263 10.9724C5.07922 10.9562 4.96355 10.9688 4.85629 11.009C4.74902 11.0492 4.65359 11.1158 4.57879 11.2026C4.56754 11.0711 4.52273 10.9446 4.44865 10.8354C4.37456 10.7262 4.27368 10.6378 4.15565 10.5787C4.03763 10.5197 3.90642 10.4919 3.77459 10.498C3.64275 10.5042 3.5147 10.5441 3.40269 10.6139C3.02533 10.8441 2.81401 11.8717 2.73728 12.2768L5.44797 13.0441L5.62785 12.429ZM4.16999 11.7384L4.09326 11.99L3.35112 11.7849C3.37628 11.5032 3.52973 11.0177 3.91338 11.146C4.14106 11.2013 4.2442 11.4315 4.16747 11.7384H4.16999Z" fill="white"/>
<path fill-rule="evenodd" clip-rule="evenodd" d="M5.32093 14.4239L2.99389 14.3723L3.01904 13.5798H2.47942L2.42785 15.7798H2.96496L2.99011 15.0125L5.292 15.0641L5.32093 14.4239Z" fill="white"/>
<path fill-rule="evenodd" clip-rule="evenodd" d="M5.93225 22.327L6.21401 22.8125L5.52345 23.2477C5.36432 23.1458 5.23466 23.004 5.1474 22.8364C5.06013 22.6687 5.01829 22.4812 5.02605 22.2924C5.03382 22.1036 5.0909 21.9201 5.19163 21.7602C5.29236 21.6003 5.43322 21.4696 5.60018 21.3811C5.77066 21.2726 5.96707 21.2118 6.169 21.2049C6.37094 21.198 6.57104 21.2452 6.74855 21.3417C6.92606 21.4382 7.0745 21.5805 7.17847 21.7538C7.28244 21.927 7.33814 22.1249 7.3398 22.327L7.6203 22.254C7.59977 21.9984 7.51446 21.7523 7.37242 21.5388C7.23038 21.3253 7.0363 21.1515 6.80848 21.0338C6.58066 20.9162 6.32662 20.8584 6.07032 20.8662C5.81402 20.8739 5.5639 20.9468 5.34357 21.0779C4.19263 21.7936 4.65301 23.0213 5.49703 23.6616L6.62282 22.971L6.13729 22.2037L5.93225 22.327Z" fill="white"/>
<path fill-rule="evenodd" clip-rule="evenodd" d="M9.48571 23.7849L8.43665 25.0428C8.05929 25.5031 7.66936 25.5547 7.36244 25.2943C7.08068 25.0641 7.03036 24.6805 7.43917 24.2201L8.48822 22.9623L8.20646 22.7321L7.15741 23.9597C6.59514 24.6251 6.72219 25.1358 7.15741 25.5195C7.2694 25.6223 7.40324 25.6984 7.54887 25.7421C7.69451 25.7858 7.84815 25.7959 7.99825 25.7717C8.14836 25.7475 8.29103 25.6896 8.41554 25.6023C8.54005 25.5151 8.64317 25.4007 8.71715 25.2679L9.76621 24.0402L9.48571 23.7849Z" fill="white"/>
<path fill-rule="evenodd" clip-rule="evenodd" d="M8.94986 26.7773L9.28194 26.9308L9.89577 26.2402L10.7914 26.649L10.6895 27.5698L11.0216 27.7233L11.3033 24.8075L10.926 24.6289L8.94986 26.7773ZM11.0216 25.0377C10.9437 25.4863 10.8925 25.9391 10.8681 26.3937L10.1008 26.0616C10.331 25.7798 10.8165 25.2931 11.0216 25.0377Z" fill="white"/>
<path fill-rule="evenodd" clip-rule="evenodd" d="M13.4769 25.4716C13.2498 25.4236 13.0185 25.3979 12.7863 25.3949L12.2492 28.0804L12.6077 28.1572L12.8379 26.9811L13.17 27.0326C13.4769 27.1094 13.6052 27.2842 13.6052 27.6716C13.5984 27.903 13.6157 28.1344 13.6568 28.3622L14.0153 28.4389C13.9598 28.1787 13.9424 27.9117 13.9637 27.6465C13.9717 27.5251 13.9502 27.4037 13.9012 27.2924C13.8521 27.1812 13.7769 27.0834 13.6819 27.0075C13.8087 26.9935 13.9298 26.9471 14.0335 26.8727C14.1372 26.7984 14.22 26.6986 14.2739 26.583C14.3279 26.4673 14.3512 26.3398 14.3416 26.2126C14.332 26.0853 14.2898 25.9627 14.219 25.8565C14.1286 25.7447 14.016 25.6527 13.8882 25.5865C13.7605 25.5202 13.6205 25.4811 13.4769 25.4716ZM13.9624 26.3672C13.9109 26.6741 13.6304 26.8276 13.2467 26.7446L12.8882 26.6679L13.0933 25.6704C13.4769 25.7018 14.0907 25.8553 13.9624 26.3672Z" fill="white"/>
<path fill-rule="evenodd" clip-rule="evenodd" d="M15.931 25.7283L15.0102 28.5157H15.3876L15.6694 27.6465H16.6455L16.9524 28.5157H17.3297L16.3574 25.7484L15.931 25.7283ZM15.726 27.3635C15.8752 26.9358 16.0011 26.5004 16.1033 26.0591C16.1801 26.366 16.4354 27.0314 16.5385 27.3635H15.726Z" fill="white"/>
<path fill-rule="evenodd" clip-rule="evenodd" d="M19.5637 25.1912C19.7423 25.8302 19.9411 26.8265 20.1775 27.4164C19.8002 26.9309 18.7448 25.9837 18.2907 25.5296L17.9134 25.6315L18.604 28.317L18.936 28.2403C18.7826 27.6265 18.5008 26.5522 18.3222 25.99C18.731 26.5019 19.7801 27.4227 20.2656 27.9082L20.6241 27.8063L19.9209 25.1145L19.5637 25.1912Z" fill="white"/>
<path fill-rule="evenodd" clip-rule="evenodd" d="M22.2731 24.2151L22.1197 23.9635L20.3297 24.9358L20.4832 25.2176L21.1989 24.8088L22.4014 26.9824L22.7083 26.8038L21.5323 24.6302L22.2731 24.2151Z" fill="white"/>
<path fill-rule="evenodd" clip-rule="evenodd" d="M24.4216 25.2427L23.7562 24.5006L24.5486 23.7849L24.3436 23.5547L23.5511 24.2704L22.9624 23.6314L23.7813 22.8641L23.6027 22.6339L22.4769 23.6565L24.3637 25.7031L25.5146 24.654L25.3096 24.4238L24.4216 25.2427Z" fill="white"/>
<path fill-rule="evenodd" clip-rule="evenodd" d="M26.2895 23.1459L25.4455 22.6088L26.0341 21.7132L25.7826 21.5597L25.2203 22.4553L24.4782 21.9698L25.092 21.0239L24.8316 20.8691L24.0392 22.127L26.3662 23.6364L27.1851 22.332L26.9549 22.1534L26.2895 23.1459Z" fill="white"/>
<path fill-rule="evenodd" clip-rule="evenodd" d="M29.3323 14.449C29.3071 13.7836 28.897 13.3748 28.4115 13.4264C28.0027 13.4515 27.7461 13.7849 27.5926 14.2452C27.4907 14.6037 27.3876 14.7308 27.2153 14.7308C26.7297 14.7559 26.8832 13.81 27.0102 13.5547L26.4731 13.4528C26.3667 13.7119 26.3236 13.9926 26.3473 14.2716C26.3989 15.0389 26.8077 15.3974 27.2933 15.371C27.7021 15.3459 27.9322 15.0893 28.1121 14.6037C28.2379 14.2264 28.3172 14.0666 28.4895 14.0666C28.9247 14.0666 28.7964 14.8855 28.6945 15.0641L29.2316 15.1899C29.3011 14.9492 29.335 14.6996 29.3323 14.449Z" fill="white"/>
<path fill-rule="evenodd" clip-rule="evenodd" d="M4.70458 18.3635C4.70458 18.5026 4.64931 18.636 4.55094 18.7344C4.45258 18.8328 4.31916 18.888 4.18005 18.888C4.04093 18.888 3.90752 18.8328 3.80915 18.7344C3.71078 18.636 3.65552 18.5026 3.65552 18.3635C3.65552 18.2244 3.71078 18.091 3.80915 17.9926C3.90752 17.8942 4.04093 17.839 4.18005 17.839C4.31916 17.839 4.45258 17.8942 4.55094 17.9926C4.64931 18.091 4.70458 18.2244 4.70458 18.3635Z" fill="#F7E19E"/>
<path fill-rule="evenodd" clip-rule="evenodd" d="M28.0543 18.3635C28.0543 18.5026 27.999 18.636 27.9006 18.7344C27.8023 18.8328 27.6688 18.888 27.5297 18.888C27.3906 18.888 27.2572 18.8328 27.1588 18.7344C27.0605 18.636 27.0052 18.5026 27.0052 18.3635C27.0052 18.2244 27.0605 18.091 27.1588 17.9926C27.2572 17.8942 27.3906 17.839 27.5297 17.839C27.6688 17.839 27.8023 17.8942 27.9006 17.9926C27.999 18.091 28.0543 18.2244 28.0543 18.3635Z" fill="#F1CB53"/>
<path fill-rule="evenodd" clip-rule="evenodd" d="M17.7473 8.82386C18.4037 8.73717 19.0691 8.89521 19.6164 9.26781C20.1637 9.64042 20.5547 10.2015 20.7146 10.844C20.8173 11.4251 20.7368 12.0238 20.4845 12.5572L20.4593 12.6339C20.4568 12.6534 20.448 12.6715 20.4341 12.6855L20.409 12.7371L20.3322 12.8905L20.3071 12.9421L20.2819 12.9937L20.2568 13.0452C20.2568 13.0519 20.2541 13.0583 20.2494 13.063C20.2447 13.0678 20.2383 13.0704 20.2316 13.0704L20.2065 13.122L20.1813 13.1735L20.1561 13.2251C20.1561 13.2284 20.1555 13.2317 20.1542 13.2348C20.153 13.2378 20.1511 13.2406 20.1488 13.2429C20.1464 13.2452 20.1437 13.2471 20.1406 13.2484C20.1376 13.2496 20.1343 13.2503 20.131 13.2503L20.1058 13.3019L20.0543 13.3534L20.0291 13.3786L19.9775 13.4302L19.9524 13.4817C19.1187 14.2914 18.1136 14.9031 17.0115 15.2717L16.858 15.3232C15.9477 15.6496 15.0165 15.9143 14.0706 16.1157L13.7889 16.1924L13.5071 16.2691L13.0719 16.371C12.97 18.5962 13.5574 19.7471 14.8115 19.9006C14.9134 19.9006 15.0417 19.9257 15.1436 19.9257C15.7892 19.9103 16.4143 19.696 16.9335 19.3119L17.0102 19.2603V19.1585L17.087 19.1069L17.1637 19.0553L17.2656 18.9786C17.8616 18.5087 18.3796 17.9475 18.8002 17.3157L18.9536 17.1107L19.6442 17.6993L19.5926 17.7509L19.4907 17.8767C19.4398 17.9391 19.3975 18.008 19.365 18.0817L19.2631 18.2075C18.7392 19 18.0606 19.6786 17.2681 20.2025L17.1914 20.2541L17.1662 20.2792L17.0895 20.3308C17.0238 20.3699 16.9553 20.4039 16.8844 20.4327L16.8077 20.4842L16.731 20.5358C15.933 20.9549 15.0485 21.1827 14.1473 21.2012C13.8992 21.1968 13.6515 21.1796 13.4052 21.1496C11.5385 20.8679 10.4643 19.5144 10.4379 17.3132V17.2364C10.4094 15.2379 11.0665 13.29 12.2995 11.7169L12.3511 11.6402C12.9394 10.8068 13.711 10.1195 14.6066 9.63128C15.5023 9.14302 16.498 8.86678 17.5172 8.82386H17.7473ZM17.0819 9.79619C16.9973 9.79229 16.9125 9.80077 16.8304 9.82135H16.775C15.9434 10.0073 15.218 10.5123 14.7549 11.2276L14.7033 11.3044C14.7033 11.3295 14.6782 11.3295 14.6782 11.3559L14.6266 11.4327L14.575 11.5094L14.5234 11.5861L14.4719 11.6629L14.4203 11.7396L14.3687 11.8163L14.3172 11.893C13.7019 12.9187 13.3018 14.0588 13.1411 15.244C14.3453 15.0414 15.4987 14.6069 16.5373 13.9647C17.087 13.6844 17.5507 13.2606 17.8793 12.7382C18.208 12.2159 18.3892 11.6144 18.4039 10.9974C18.3715 10.669 18.2184 10.3643 17.9741 10.1424C17.7299 9.92046 17.4119 9.79709 17.0819 9.79619Z" fill="#006DAD"/>
<path fill-rule="evenodd" clip-rule="evenodd" d="M10.765 17.3912C10.7317 15.3474 11.3973 13.3535 12.6517 11.7396C13.2622 10.9088 14.0538 10.2278 14.9665 9.74838C15.8793 9.26892 16.8892 9.00352 17.9197 8.9723H18.1499C18.5472 8.96794 18.9431 9.0196 19.326 9.12576C18.8183 8.90273 18.2692 8.78956 17.7146 8.79369H17.4845C16.4667 8.84169 15.473 9.11984 14.5782 9.60722C13.6834 10.0946 12.9108 10.7785 12.3184 11.6075C11.0476 13.1954 10.3725 15.1779 10.4102 17.2113C10.3193 18.0152 10.5055 18.826 10.938 19.5097C11.3706 20.1933 12.0235 20.7089 12.7889 20.971C12.1332 20.6439 11.5902 20.1284 11.2296 19.4905C10.869 18.8527 10.7072 18.1216 10.765 17.3912Z" fill="#044D73"/>
<path fill-rule="evenodd" clip-rule="evenodd" d="M15.4719 20.0276C16.2421 19.9727 16.9676 19.6454 17.5184 19.1043C18.1571 18.6033 18.7249 18.0182 19.2065 17.3647L18.9247 17.1345L18.8731 17.2113C18.4097 17.8863 17.8494 18.4894 17.2102 19.0012C16.6035 19.5262 15.8381 19.8323 15.0366 19.8704C14.9254 19.8747 14.8139 19.8663 14.7046 19.8452C14.6333 19.8434 14.5632 19.8258 14.4995 19.7936C14.6985 19.8999 14.9149 19.9694 15.1385 19.9987C15.2668 19.9987 15.3687 20.0276 15.4719 20.0276Z" fill="#044D73"/>
<path fill-rule="evenodd" clip-rule="evenodd" d="M18.3599 11.0478C18.348 11.6654 18.168 12.2681 17.839 12.7909C17.5101 13.3138 17.0448 13.737 16.4933 14.0151C15.6028 14.5847 14.614 14.9836 13.5775 15.1912C13.5524 15.2931 13.5775 15.2428 13.5524 15.317C14.7498 15.1635 15.9046 14.7722 16.9486 14.166C17.4984 13.8857 17.9621 13.4619 18.2907 12.9395C18.6193 12.4172 18.8005 11.8157 18.8153 11.1987C18.8207 10.9054 18.7203 10.6199 18.5325 10.3945C18.3448 10.1691 18.0821 10.0188 17.7926 9.97107C17.9623 10.0961 18.1014 10.258 18.1996 10.4444C18.2979 10.6309 18.3527 10.8372 18.3599 11.0478Z" fill="#044D73"/>
</g>
<defs>
<radialGradient id="paint0_radial_97_427" cx="0" cy="0" r="1" gradientUnits="userSpaceOnUse" gradientTransform="translate(9.45724 8.24974) scale(20.5424 20.4894)">
<stop stop-color="#9B9C9E"/>
<stop offset="0.321" stop-color="#656667"/>
<stop offset="0.785" stop-color="#1D1D1D"/>
<stop offset="1"/>
</radialGradient>
<radialGradient id="paint1_radial_97_427" cx="0" cy="0" r="1" gradientUnits="userSpaceOnUse" gradientTransform="translate(-52.2375 39.4567) rotate(49.7771) scale(16.8789 16.946)">
<stop stop-color="#FFFEFC"/>
<stop offset="0.242" stop-color="#FFFDF7"/>
<stop offset="1" stop-color="#F1CB54"/>
</radialGradient>
<clipPath id="clip0_97_427">
<rect width="30.0767" height="30" fill="white" transform="translate(0.816528)"/>
</clipPath>
</defs>
</svg>
