<svg width="11" height="10" viewBox="0 0 11 10" fill="none" xmlns="http://www.w3.org/2000/svg">
<path fill-rule="evenodd" clip-rule="evenodd" d="M5.35643 0.0262131C5.6467 -0.0427016 5.88342 0.0242655 6.06659 0.227134C6.11275 0.278268 6.1424 0.341534 6.16544 0.406459C6.1931 0.484412 6.22271 0.561562 6.25426 0.637908C6.33072 0.822939 6.27595 1.04511 6.08966 1.11845C6.08105 1.12183 6.07241 1.12515 6.06372 1.12841C6.01629 1.1462 5.95992 1.15436 5.92386 1.11877V1.11877C5.91106 1.10613 5.90251 1.08927 5.8952 1.07284C5.82742 0.920331 5.75965 0.767827 5.69187 0.615323C5.68442 0.598558 5.67509 0.582214 5.66182 0.569547V0.569547C5.63191 0.541 5.58831 0.536463 5.54729 0.541662C4.42323 0.684144 3.29766 0.817741 2.17064 0.94248V0.94248C2.10464 0.958588 2.06588 1.02522 2.07672 1.09228C2.08157 1.1223 2.08938 1.15225 2.10015 1.18212C2.63638 2.62012 3.17476 4.05635 3.71529 5.4908C3.78574 5.67775 3.72733 5.89307 3.55208 5.989V5.989V5.989C3.43408 6.07261 3.29411 5.96934 3.24506 5.83329C2.70209 4.32723 2.1513 2.82383 1.59268 1.32308C1.58096 1.28962 1.57098 1.25697 1.56275 1.22513C1.3947 0.574898 2.33894 0.395141 3.0057 0.314672C3.79143 0.219845 4.57501 0.123695 5.35643 0.0262131Z" fill="#990000"/>
<path fill-rule="evenodd" clip-rule="evenodd" d="M0.352554 1.23092C0.449223 1.16736 0.568933 1.1458 0.680292 1.17715C0.837538 1.22143 0.931406 1.3286 0.961894 1.49869C0.974307 1.56793 0.957719 1.63978 0.925467 1.7023V1.7023C0.862921 1.82355 0.83632 1.96405 0.891574 2.08879C0.917198 2.14664 0.946118 2.2029 0.978333 2.25758C1.01019 2.31164 1.0541 2.35741 1.11016 2.3856V2.3856C1.19144 2.42648 1.28789 2.46775 1.30925 2.55618C1.32868 2.63661 1.28692 2.70956 1.18394 2.77502C1.07626 2.82532 0.985346 2.814 0.911174 2.74102C0.872464 2.70293 0.857109 2.64746 0.856527 2.59316V2.59316C0.855731 2.51897 0.835506 2.44643 0.79578 2.38377C0.778395 2.35635 0.761643 2.32857 0.745523 2.30043C0.634602 2.10682 0.422484 1.99562 0.256178 1.84685C0.172419 1.77192 0.140995 1.66587 0.161906 1.52868C0.180258 1.40828 0.250791 1.29782 0.352554 1.23092V1.23092ZM0.419897 1.45289C0.453255 1.41488 0.50508 1.40369 0.55565 1.40395C0.639474 1.40438 0.692064 1.4226 0.71342 1.45863C0.792781 1.59251 0.533765 1.79652 0.42676 1.6835C0.408055 1.66375 0.395008 1.63498 0.387618 1.5972C0.377832 1.54716 0.386265 1.49121 0.419897 1.45289V1.45289Z" fill="#990000"/>
<path fill-rule="evenodd" clip-rule="evenodd" d="M2.8215 1.83442C2.64877 1.3673 3.50172 1.04235 3.77495 1.45873V1.45873C4.00303 1.8063 3.68276 2.40844 3.2854 2.28626C3.20707 2.26218 3.12682 2.21835 3.04466 2.15478C2.93431 2.04512 2.85992 1.93833 2.8215 1.83442Z" fill="#990000"/>
<path fill-rule="evenodd" clip-rule="evenodd" d="M4.83362 1.47802C4.95822 1.59801 4.9097 1.8054 4.75434 1.88144C4.75254 1.88232 4.75074 1.88319 4.74894 1.88406C4.62401 1.94423 4.52614 2.05723 4.41293 2.13731V2.13731C4.3117 2.20891 4.17308 2.14648 4.1167 2.03605C4.03782 1.88154 4.04315 1.72899 4.13268 1.57841C4.20028 1.46469 4.318 1.38548 4.44869 1.36495C4.60202 1.34087 4.73034 1.37856 4.83362 1.47802Z" fill="#990000"/>
<path fill-rule="evenodd" clip-rule="evenodd" d="M4.67674 1.9153C4.84544 1.85036 5.07743 1.90816 5.02468 2.08106C4.99773 2.16941 4.94152 2.25024 4.85605 2.32357C4.83324 2.34314 4.80675 2.35816 4.7782 2.36754C4.67323 2.40203 4.57666 2.40714 4.48849 2.38286C4.35606 2.3464 4.42294 2.16448 4.49624 2.04831V2.04831C4.52764 1.99856 4.57408 1.95036 4.62996 1.93198C4.64577 1.92678 4.66137 1.92122 4.67674 1.9153Z" fill="#990000"/>
<path opacity="0.979" fill-rule="evenodd" clip-rule="evenodd" d="M6.8934 2.24612C6.92129 2.23272 6.95199 2.22018 6.98213 2.22718V2.22718C7.01997 2.23597 7.04249 2.27163 7.05901 2.30678C7.77059 3.82038 8.47646 5.33439 9.17657 6.84884C9.33521 7.21286 9.24593 7.49947 8.90874 7.70872C7.78528 8.26611 6.66705 8.82889 5.55404 9.39704C5.36638 9.49284 5.16543 9.5984 4.95821 9.56024C4.90443 9.55034 4.85288 9.53303 4.80354 9.50831C4.63338 9.42308 4.54062 9.24198 4.46678 9.06658C4.31439 8.70454 4.17937 8.33626 4.06172 7.96177C4.04305 7.90235 3.98951 7.8546 3.93025 7.87379V7.87379C3.92254 7.87628 3.91507 7.8799 3.90802 7.88389C3.56506 8.07803 3.20606 8.22741 2.83101 8.33201C2.71302 8.36492 2.59224 8.2974 2.55349 8.18119V8.18119C2.51295 8.0596 2.57617 7.92742 2.69551 7.88067C3.19008 7.68695 3.67328 7.46035 4.14514 7.20091C4.22284 7.15819 4.32984 7.15869 4.3556 7.24354V7.24354C4.52488 7.75693 4.72268 8.25769 4.94894 8.74581C4.99239 8.83954 5.07675 8.91958 5.17846 8.90142V8.90142C5.20302 8.89703 5.2266 8.88695 5.24866 8.87531C6.24394 8.35019 7.24782 7.83914 8.26031 7.34221C8.34236 7.29161 8.42324 7.23993 8.50293 7.18717C8.60885 7.11704 8.684 6.99653 8.64091 6.87703V6.87703C8.50713 6.60007 8.36617 6.32755 8.21802 6.05944C7.7161 4.94286 7.19924 3.83395 6.66741 2.73268C6.66254 2.72297 6.65778 2.71322 6.65314 2.70344C6.56843 2.52499 6.69892 2.33704 6.8779 2.25347C6.88308 2.25105 6.88825 2.2486 6.8934 2.24612Z" fill="#990000"/>
<path fill-rule="evenodd" clip-rule="evenodd" d="M3.64604 2.50252C3.71514 2.46797 3.79037 2.45034 3.86676 2.46191C4.0423 2.48849 4.17315 2.55802 4.25932 2.6705C4.44154 2.9084 4.36985 3.32547 4.0872 3.42502C4.05751 3.43548 4.02629 3.4424 3.99355 3.4458C3.79034 3.46686 3.5862 3.35399 3.47071 3.18547C3.35706 3.01962 3.36437 2.83562 3.49266 2.63348C3.52894 2.57631 3.58548 2.53279 3.64604 2.50252V2.50252Z" fill="#990000"/>
<path fill-rule="evenodd" clip-rule="evenodd" d="M7.94025 2.64478C8.01991 2.53731 8.18037 2.47044 8.2876 2.55041C8.2898 2.55205 8.29195 2.55374 8.29404 2.55547C8.41883 2.65891 8.39032 2.86553 8.46687 3.00841V3.00841C8.57969 3.21901 8.82898 3.32214 8.9864 3.50186C9.01741 3.53727 9.0416 3.57884 9.05896 3.62656C9.10605 3.75605 9.07201 3.9062 8.97735 4.00633C8.90638 4.0814 8.82048 4.12638 8.71966 4.14127C8.56574 4.164 8.40175 4.0971 8.31647 3.96697C8.27839 3.90886 8.26034 3.84751 8.26231 3.78291C8.26857 3.5779 8.3875 3.37659 8.30722 3.18785V3.18785C8.24053 3.03106 8.06324 2.96271 7.94261 2.84238C7.88557 2.78547 7.88478 2.71961 7.94025 2.64478ZM8.54688 3.67122C8.59657 3.62451 8.66408 3.60054 8.7309 3.61417C8.79391 3.62703 8.83034 3.65608 8.84018 3.70132C8.86554 3.81786 8.73934 3.93558 8.62231 3.91258C8.60671 3.90951 8.59123 3.90462 8.57589 3.8979C8.532 3.87869 8.4951 3.84043 8.48988 3.7928C8.48955 3.78981 8.48931 3.78681 8.48917 3.7838C8.48714 3.74044 8.51524 3.70094 8.54688 3.67122V3.67122Z" fill="#990000"/>
<path fill-rule="evenodd" clip-rule="evenodd" d="M1.20418 3.17626C1.3298 3.04703 1.5394 3.0195 1.70265 3.09588C1.85304 3.16624 1.91401 3.30608 1.88553 3.51538C1.87983 3.55726 1.86203 3.59664 1.83793 3.63137V3.63137C1.78105 3.71336 1.76613 3.81799 1.80532 3.90977C1.82811 3.96315 1.85278 4.01558 1.87934 4.06705C1.94393 4.19227 2.06802 4.26849 2.18019 4.35375C2.27805 4.42813 2.2802 4.50704 2.18663 4.59049C2.08118 4.68455 1.89804 4.71123 1.82005 4.5934C1.81662 4.58822 1.81342 4.58289 1.81044 4.5774C1.74466 4.45599 1.74816 4.30386 1.68374 4.18172V4.18172C1.58319 3.99108 1.36999 3.88422 1.21323 3.73631C1.17553 3.70075 1.14429 3.65763 1.11948 3.60696C1.07602 3.51817 1.07209 3.41299 1.1098 3.32161C1.13287 3.2657 1.16433 3.21725 1.20418 3.17626ZM1.37538 3.34548C1.40028 3.31663 1.43166 3.2926 1.46972 3.29059C1.57747 3.28488 1.63745 3.3129 1.64965 3.37465C1.67277 3.49168 1.55026 3.61351 1.43199 3.59797C1.36781 3.58954 1.33598 3.53401 1.3365 3.43139C1.33667 3.39925 1.35438 3.36981 1.37538 3.34548V3.34548Z" fill="#990000"/>
<path fill-rule="evenodd" clip-rule="evenodd" d="M5.73869 4.08888C5.95737 3.97647 6.2193 3.9737 6.44875 4.06208C6.61416 4.1258 6.75152 4.2175 6.86083 4.33718C7.21011 4.7196 7.23113 5.39872 6.83794 5.73584C6.65349 5.89399 6.39459 5.95956 6.06125 5.93255C5.96857 5.91191 5.88281 5.87693 5.80401 5.8276C5.76791 5.80501 5.73215 5.77566 5.6896 5.7776V5.7776C5.65415 5.77921 5.62374 5.80178 5.59454 5.82195C4.76417 6.39545 3.88599 6.8928 2.96004 7.314C2.94497 7.32076 2.92987 7.32743 2.91475 7.334C2.19525 7.64665 0.958156 7.54215 1.24939 6.81372C1.26661 6.77064 1.28707 6.72595 1.31076 6.67966C1.34753 6.6228 1.38563 6.567 1.42505 6.51226C1.60648 6.26034 1.42829 5.83665 1.11794 5.82845C1.11197 5.8283 1.10599 5.82814 1.10001 5.82797C0.965743 5.82424 0.845799 5.73001 0.845582 5.59569V5.59569C0.845363 5.45997 0.967336 5.36549 1.10301 5.36226C1.53539 5.35197 1.96776 5.35203 2.40013 5.36244C2.53638 5.36573 2.6593 5.44439 2.7144 5.56905V5.56905C2.77946 5.71625 2.73243 5.88743 2.61097 5.99304C2.3279 6.23919 2.06807 6.50953 1.83146 6.80409C1.82265 6.81506 1.81505 6.82697 1.80876 6.83956V6.83956C1.74956 6.95795 1.82021 7.10123 1.95241 7.09443C2.05435 7.08918 2.15528 7.06839 2.25522 7.03207C2.99905 6.75119 3.70678 6.40881 4.37839 6.00491C4.96595 5.65155 5.04803 4.78606 5.49993 4.27043V4.27043C5.54728 4.21642 5.61055 4.16234 5.67229 4.12564C5.69418 4.11264 5.71631 4.10038 5.73869 4.08888ZM5.91745 4.56906C5.97396 4.52737 6.04256 4.50731 6.11248 4.51381C6.34593 4.53554 6.49918 4.6278 6.57224 4.7906C6.68859 5.04984 6.56913 5.43307 6.28521 5.4445V5.4445C6.13945 5.45037 5.99101 5.36395 5.89717 5.25226C5.76714 5.0975 5.74065 4.91327 5.8177 4.69955C5.83651 4.6474 5.87285 4.60198 5.91745 4.56906V4.56906Z" fill="#990000"/>
<path fill-rule="evenodd" clip-rule="evenodd" d="M8.95573 4.46152C9.03165 4.4093 9.13117 4.39314 9.21116 4.43888C9.24785 4.45986 9.27566 4.4874 9.2946 4.52149C9.36293 4.64446 9.3601 4.79931 9.42559 4.92382V4.92382C9.52575 5.11422 9.73308 5.21977 9.8938 5.36278C9.95518 5.41739 9.99232 5.48945 10.0052 5.57896C10.0267 5.72753 9.95593 5.87901 9.83561 5.96875C9.67859 6.08586 9.51383 6.08161 9.34134 5.956C9.26497 5.90038 9.20935 5.81711 9.19884 5.72322C9.19628 5.7004 9.19538 5.67797 9.19613 5.65593C9.2039 5.42773 9.31026 5.18415 9.20036 4.98401C9.19333 4.97119 9.18619 4.95843 9.17895 4.94572C9.14185 4.88055 9.08566 4.82799 9.01526 4.80215V4.80215C8.96452 4.78352 8.91077 4.76242 8.88121 4.71716C8.85311 4.67414 8.84678 4.62737 8.86222 4.57686C8.87686 4.52896 8.91446 4.48991 8.95573 4.46152V4.46152ZM9.47276 5.56252C9.51607 5.50724 9.59413 5.48866 9.66354 5.49932C9.75401 5.5132 9.7929 5.55793 9.78021 5.63348C9.76485 5.72494 9.68572 5.80545 9.59298 5.80472C9.58688 5.80468 9.58083 5.80433 9.57482 5.80369C9.46504 5.79201 9.40467 5.64942 9.47276 5.56252V5.56252Z" fill="#990000"/>
<path opacity="0.175" fill-rule="evenodd" clip-rule="evenodd" d="M0.380592 5.39529C0.333068 5.39008 0.33087 5.35916 0.377995 5.36722C0.393587 5.36988 0.40923 5.37299 0.424922 5.37652C0.440991 5.38014 0.453521 5.39268 0.457127 5.40875C0.460629 5.42436 0.463699 5.43992 0.466339 5.45544C0.474265 5.50203 0.443511 5.49987 0.438359 5.4529V5.4529C0.437384 5.44401 0.43337 5.43571 0.427047 5.42939C0.419503 5.42184 0.41196 5.4143 0.404416 5.40675C0.398009 5.40035 0.389599 5.39628 0.380592 5.39529V5.39529Z" fill="#990000"/>
<path fill-rule="evenodd" clip-rule="evenodd" d="M0.000128809 5.61407C-0.00227906 5.47537 0.123028 5.37708 0.261512 5.38532C0.295961 5.38737 0.330382 5.39016 0.364776 5.3937C0.384039 5.39569 0.401954 5.4044 0.415647 5.41809V5.41809C0.42934 5.43179 0.438055 5.4497 0.440038 5.46897C0.443785 5.50537 0.446697 5.5418 0.448773 5.57827C0.456421 5.71259 0.363289 5.83131 0.228773 5.83397V5.83397C0.108556 5.83634 0.00381684 5.74407 0.000355184 5.62388C0.000260991 5.62061 0.000185532 5.61734 0.000128809 5.61407Z" fill="#990000"/>
<path fill-rule="evenodd" clip-rule="evenodd" d="M1.97797 8.04182C1.99361 8.03584 2.01046 8.03067 2.0272 8.03052V8.03052C2.08869 8.02999 2.12228 8.09351 2.13943 8.15257C2.15314 8.19979 2.16789 8.24667 2.18367 8.2932C2.21052 8.3724 2.22438 8.48122 2.14249 8.49814V8.49814C2.04943 8.52125 1.95813 8.54823 1.86857 8.57904C1.83779 8.58963 1.80356 8.58211 1.78054 8.55909V8.55909C1.7684 8.54694 1.76033 8.53135 1.75709 8.51448C1.75265 8.49132 1.74778 8.46827 1.74248 8.44534C1.70773 8.29496 1.7633 8.1303 1.90569 8.07074C1.92961 8.06073 1.9537 8.05109 1.97797 8.04182Z" fill="#990000"/>
<path fill-rule="evenodd" clip-rule="evenodd" d="M7.94985 8.58439C7.98929 8.54212 8.04214 8.50992 8.09892 8.52083C8.23481 8.54693 8.30404 8.63203 8.30659 8.77612C8.30747 8.82526 8.2889 8.88155 8.25285 8.91497V8.91497C8.15138 9.00904 7.98277 8.99393 7.86595 9.06809C7.85036 9.07798 7.83464 9.08762 7.81878 9.097C7.64056 9.20245 7.54985 9.41547 7.42805 9.58295C7.38928 9.63627 7.33546 9.67817 7.26658 9.70866C7.17332 9.74994 7.06505 9.74496 6.97233 9.7025C6.78666 9.61746 6.70168 9.47562 6.71742 9.27698C6.72666 9.16036 6.77736 9.04436 6.87381 8.97815C6.90368 8.95764 6.93603 8.94124 6.97086 8.92895C7.02957 8.90823 7.09457 8.91164 7.15415 8.9297V8.9297C7.32015 8.97999 7.50127 9.0233 7.65115 8.93602C7.713 8.90001 7.77169 8.85877 7.82723 8.8123C7.86216 8.78308 7.88453 8.74191 7.89346 8.69726C7.89452 8.69197 7.89558 8.68667 7.89664 8.68138C7.90396 8.6448 7.92441 8.61167 7.94985 8.58439V8.58439ZM6.94147 9.33936C6.93099 9.21975 7.07302 9.13697 7.17794 9.19534C7.21204 9.21431 7.23312 9.24106 7.24121 9.27558C7.27333 9.41283 7.08164 9.5449 6.98682 9.44059C6.98237 9.43571 6.97806 9.4305 6.97388 9.42498C6.95547 9.40067 6.94413 9.36974 6.94147 9.33936V9.33936Z" fill="#990000"/>
</svg>
