<svg width="111" height="25" viewBox="0 0 111 25" fill="none" xmlns="http://www.w3.org/2000/svg">
<path d="M107.822 18.5127C106.077 18.5127 104.663 19.94 104.663 21.7009C104.663 23.4614 106.077 24.8891 107.822 24.8891C109.567 24.8891 110.982 23.4615 110.982 21.7009C110.982 19.9399 109.567 18.5127 107.822 18.5127ZM97.4274 16.0478C97.4274 13.6371 95.3854 11.6833 92.8664 11.6833C90.3474 11.6833 88.3051 13.6372 88.3051 16.0478C88.3051 18.4586 90.3471 20.4129 92.8664 20.4129C95.3857 20.4129 97.4274 18.4586 97.4274 16.0478ZM97.4444 7.56483H102.478V24.5303H97.4444V23.446C96.0223 24.4246 94.3057 24.9999 92.4542 24.9999C87.5547 24.9999 83.5826 20.992 83.5826 16.0478C83.5826 11.1035 87.5547 7.09587 92.4542 7.09587C94.3057 7.09587 96.0223 7.67114 97.4444 8.65009V7.56483ZM57.1603 9.77471V7.56507H52.0065V24.5302H57.1718V16.6094C57.1718 13.937 60.0422 12.5007 62.0339 12.5007C62.0543 12.5007 62.0734 12.5027 62.0938 12.5029V7.56641C60.0495 7.56641 58.1694 8.44929 57.1603 9.77471ZM44.3222 16.0479C44.3222 13.6372 42.28 11.6834 39.7609 11.6834C37.2419 11.6834 35.1996 13.6373 35.1996 16.0479C35.1996 18.4586 37.2418 20.413 39.7609 20.413C42.2801 20.413 44.3222 18.4586 44.3222 16.0479ZM44.3389 7.56489H49.3729V24.5303H44.3389V23.446C42.9168 24.4247 41.2002 25 39.349 25C34.4492 25 30.4771 20.992 30.4771 16.0478C30.4771 11.1036 34.4492 7.09593 39.349 7.09593C41.2003 7.09593 42.9168 7.6712 44.3389 8.65015V7.56489ZM74.6379 7.10858C72.6271 7.10858 70.7239 7.73854 69.4515 9.47652V7.5659H64.4394V24.5304H69.5132V15.615C69.5132 13.0351 71.2276 11.7718 73.292 11.7718C75.5044 11.7718 76.7763 13.1054 76.7763 15.58V24.5304H81.8041V13.7419C81.8041 9.79379 78.6933 7.10858 74.6379 7.10858ZM23.1447 24.5304H28.4134V0.00462917H23.1447V24.5304ZM0 24.5371H5.57907V5.92762e-05H0V24.5371ZM19.5137 5.92762e-05C19.5137 5.31209 17.4622 10.2537 13.8066 13.9267L21.5184 24.538H14.6276L6.24652 13.0058L8.40954 11.3712C11.9966 8.65983 14.0541 4.51536 14.0541 0L19.5137 5.92762e-05Z" fill="white"/>
</svg>
