<svg width="94" height="25" viewBox="0 0 94 25" fill="none" xmlns="http://www.w3.org/2000/svg">
<path d="M88.9244 0.462659L85.766 20.2582C85.7542 20.3309 85.7584 20.4053 85.7785 20.4761C85.7985 20.547 85.8338 20.6127 85.882 20.6685C85.9301 20.7243 85.9899 20.7689 86.0572 20.7993C86.1245 20.8296 86.1976 20.8449 86.2714 20.844H90.0093C90.1411 20.8452 90.2691 20.7991 90.3699 20.7143C90.4707 20.6294 90.5377 20.5114 90.5588 20.3815L93.7172 0.585954C93.729 0.513264 93.7248 0.438873 93.7047 0.367995C93.6847 0.297117 93.6494 0.231468 93.6012 0.17565C93.5531 0.119832 93.4933 0.075197 93.426 0.0448727C93.3587 0.0145484 93.2856 -0.00073078 93.2118 0.000106418H89.4739C89.3416 -0.00250423 89.2129 0.0429955 89.1118 0.128112C89.0107 0.213228 88.9441 0.332144 88.9244 0.462659ZM84.9331 6.23946H81.3865C81.2548 6.23817 81.127 6.28406 81.0263 6.3688C80.9256 6.45353 80.8588 6.57149 80.8378 6.70123L80.7205 7.43001C80.7205 7.43001 77.966 4.45051 73.089 6.46406C70.2911 7.61691 68.948 9.99878 68.3765 11.7438C68.3765 11.7438 66.5627 17.047 70.665 19.966C70.665 19.966 74.469 22.7736 78.7524 19.7933L78.6784 20.2582C78.6613 20.3674 78.6805 20.4792 78.7331 20.5765C78.7857 20.6738 78.8688 20.7512 78.9697 20.7969C79.0366 20.8283 79.1098 20.844 79.1838 20.844H82.7327C82.865 20.8466 82.9937 20.8011 83.0948 20.716C83.196 20.6309 83.2626 20.512 83.2822 20.3815L85.4409 6.82531C85.453 6.7527 85.4487 6.67832 85.4284 6.60756C85.4081 6.53679 85.3723 6.47142 85.3236 6.41616C85.2755 6.35985 85.2156 6.31477 85.1481 6.2841C85.0806 6.25343 85.0072 6.23871 84.9331 6.23946ZM79.7144 13.7314C79.5761 14.6786 79.096 15.5428 78.3643 16.162C77.6295 16.7834 76.6942 17.1189 75.731 17.1067C75.3532 17.1111 74.9771 17.0565 74.6162 16.9449C73.085 16.458 72.2112 15.002 72.4623 13.4236C72.6018 12.4769 73.0823 11.6133 73.814 10.9946C74.5482 10.3728 75.4827 10.0362 76.4458 10.0467C76.8236 10.0428 77.1998 10.0979 77.5605 10.21C79.1012 10.6938 79.9711 12.1521 79.7184 13.7322H79.7144V13.7314ZM60.7764 14.106C62.6997 14.106 64.5599 13.4243 66.0211 12.1851C67.4792 10.9501 68.4446 9.23407 68.7418 7.34912C69.3629 3.42802 66.2698 0.00560362 61.8849 0.00560362H54.8209C54.6891 0.00434212 54.5611 0.0503439 54.4604 0.135237C54.3597 0.220129 54.2929 0.338269 54.2722 0.468156L51.113 20.2637C51.0958 20.3729 51.115 20.4847 51.1676 20.582C51.2202 20.6793 51.3034 20.7567 51.4043 20.8024C51.472 20.8338 51.5444 20.8495 51.6184 20.8495H55.3586C55.4904 20.8508 55.6183 20.8048 55.7191 20.7199C55.8198 20.635 55.8866 20.5169 55.9073 20.387L56.8347 14.574C56.8542 14.4434 56.9207 14.3243 57.0218 14.239C57.123 14.1537 57.2518 14.1081 57.3842 14.1107L60.7764 14.106ZM63.9049 7.17085C63.6743 8.62055 62.5422 9.6878 60.3765 9.6878H57.6078L58.4485 4.41595H61.1677C63.4066 4.41988 64.1356 5.72743 63.9049 7.17478V7.17085Z" fill="white"/>
<path d="M46.8515 6.57557L42.5736 13.7259L40.4024 6.62818C40.3684 6.51491 40.2984 6.41574 40.203 6.34562C40.1076 6.2755 39.9919 6.23823 39.8733 6.23945H36.0127C35.9128 6.2381 35.8158 6.27281 35.7396 6.33717C35.6633 6.40154 35.613 6.49122 35.5978 6.5897C35.5884 6.65499 35.5952 6.72159 35.6175 6.78368L39.5081 18.7394L35.9891 24.3732C35.9592 24.4196 35.9391 24.4716 35.9301 24.526C35.921 24.5804 35.9232 24.636 35.9365 24.6895C35.9498 24.7431 35.9738 24.7933 36.0072 24.8372C36.0406 24.8811 36.0827 24.9178 36.1308 24.945C36.1952 24.9819 36.2683 25.0008 36.3425 24.9999H40.5008C40.6194 25.0003 40.7362 24.9702 40.8398 24.9124C40.9434 24.8546 41.0302 24.7712 41.092 24.6701L51.9592 6.86928C51.9985 6.80729 52.0202 6.73574 52.0217 6.66237C52.0232 6.589 52.0046 6.51662 51.9678 6.45306C51.9311 6.38928 51.8779 6.33648 51.8138 6.30016C51.7497 6.26383 51.677 6.24531 51.6033 6.24652H47.4467C47.3274 6.24542 47.2099 6.27516 47.1056 6.33282C47.0013 6.39049 46.9138 6.47412 46.8515 6.57557ZM33.8241 6.23945H30.2744C30.1424 6.23819 30.0143 6.28428 29.9134 6.36931C29.8126 6.45435 29.7457 6.57269 29.7249 6.70279L29.61 7.43078C29.61 7.43078 26.8531 4.45128 21.9761 6.46484C19.179 7.61768 17.8352 9.99956 17.266 11.7445C17.266 11.7445 15.4506 17.0478 19.5521 19.9668C19.5521 19.9668 23.3569 22.7743 27.6403 19.7941L27.5663 20.259C27.5489 20.3682 27.568 20.4801 27.6206 20.5775C27.6733 20.6748 27.7565 20.7522 27.8576 20.7977C27.9245 20.8291 27.9977 20.8448 28.0717 20.8448H31.6206C31.7524 20.8457 31.8801 20.7996 31.9808 20.7148C32.0814 20.63 32.1483 20.512 32.1693 20.3823L34.3288 6.82608C34.3464 6.71672 34.3274 6.60463 34.2747 6.50712C34.2221 6.4096 34.1387 6.33209 34.0375 6.28657C33.9703 6.25573 33.8981 6.23966 33.8241 6.23945ZM28.6047 13.733C28.465 14.679 27.9848 15.5418 27.2538 16.1604C26.5194 16.7817 25.5849 17.118 24.622 17.1075C24.2448 17.1117 23.8692 17.0571 23.5088 16.9457C21.9784 16.4588 21.1054 15.0028 21.3565 13.4235C21.4964 12.4748 21.9787 11.6096 22.7129 10.9906C23.45 10.3689 24.3875 10.0339 25.3526 10.0475C25.7305 10.0435 26.1075 10.0985 26.4681 10.2108C27.993 10.6946 28.8613 12.1521 28.6094 13.733H28.6047ZM9.66748 14.1068C11.5875 14.1058 13.4446 13.4241 14.9074 12.1835C16.3641 10.9485 17.3284 9.23312 17.625 7.34911C18.2469 3.42879 15.153 0.00637527 10.7696 0.00637527H3.70487C3.57305 0.00505792 3.44513 0.0509218 3.34431 0.135644C3.24349 0.220367 3.17646 0.338335 3.15537 0.468143L0.00638783 20.2582C-0.0112076 20.3675 0.00778421 20.4796 0.0604318 20.5771C0.113079 20.6747 0.196452 20.7522 0.297668 20.7977C0.364584 20.8283 0.437798 20.8448 0.511799 20.8448H4.24965C4.3817 20.8461 4.50981 20.8 4.61066 20.7149C4.71151 20.6299 4.7784 20.5116 4.79915 20.3815L5.72495 14.5685C5.74461 14.438 5.81122 14.3191 5.91234 14.234C6.01345 14.1489 6.14216 14.1034 6.27444 14.106L9.66748 14.1068ZM12.796 7.17084C12.5653 8.62054 11.4341 9.68779 9.26834 9.68779H6.4996L7.3388 4.41594H10.058C12.2977 4.41987 13.0259 5.72821 12.796 7.17476V7.17084Z" fill="white"/>
</svg>
