<svg width="60" height="25" viewBox="0 0 60 25" fill="none" xmlns="http://www.w3.org/2000/svg">
<path fill-rule="evenodd" clip-rule="evenodd" d="M59.9239 12.9172C59.9239 8.64484 57.8599 5.27368 53.9149 5.27368C49.9532 5.27368 47.5563 8.64484 47.5563 12.8838C47.5563 17.9072 50.386 20.4439 54.4475 20.4439C56.4283 20.4439 57.9264 19.9933 59.0583 19.3591V16.0213C57.9264 16.5888 56.6281 16.9392 54.9802 16.9392C53.3656 16.9392 51.934 16.3718 51.7509 14.4025H59.8906C59.8906 14.1856 59.9239 13.3177 59.9239 12.9172ZM51.701 11.3318C51.701 9.44591 52.8495 8.66153 53.8982 8.66153C54.9136 8.66153 55.9956 9.44591 55.9956 11.3318H51.701Z" fill="white"/>
<path fill-rule="evenodd" clip-rule="evenodd" d="M41.1311 5.27368C39.4998 5.27368 38.4512 6.04137 37.8686 6.57542L37.6522 5.5407H33.9902V25L38.1516 24.1155L38.1682 19.3925C38.7674 19.8264 39.6497 20.4439 41.1145 20.4439C44.094 20.4439 46.8072 18.0407 46.8072 12.7503C46.7906 7.91053 44.0441 5.27368 41.1311 5.27368ZM40.1324 16.7723C39.1503 16.7723 38.5677 16.4219 38.1682 15.988L38.1516 9.79638C38.5843 9.3124 39.1836 8.97862 40.1324 8.97862C41.6471 8.97862 42.6958 10.6809 42.6958 12.8671C42.6958 15.1035 41.6638 16.7723 40.1324 16.7723Z" fill="white"/>
<path fill-rule="evenodd" clip-rule="evenodd" d="M28.2641 4.28905L32.4421 3.38785V0L28.2641 0.884512V4.28905Z" fill="white"/>
<path d="M32.4421 5.5575H28.2641V20.1603H32.4421V5.5575Z" fill="white"/>
<path fill-rule="evenodd" clip-rule="evenodd" d="M23.7864 6.79237L23.5201 5.55739H19.9247V20.1602H24.0861V10.2637C25.0682 8.97862 26.7327 9.21227 27.2487 9.39585V5.55739C26.7161 5.35713 24.7685 4.98997 23.7864 6.79237Z" fill="white"/>
<path fill-rule="evenodd" clip-rule="evenodd" d="M15.4637 1.93591L11.4022 2.80374L11.3856 16.1716C11.3856 18.6415 13.2332 20.4606 15.6968 20.4606C17.0617 20.4606 18.0604 20.2103 18.6097 19.9099V16.522C18.0771 16.739 15.4471 17.5067 15.4471 15.0367V9.11215H18.6097V5.55741H15.4471L15.4637 1.93591Z" fill="white"/>
<path fill-rule="evenodd" clip-rule="evenodd" d="M4.21132 9.79638C4.21132 9.14551 4.74398 8.89518 5.62619 8.89518C6.89125 8.89518 8.48922 9.27902 9.75428 9.96327V6.04137C8.3727 5.49064 7.00777 5.27368 5.62619 5.27368C2.24715 5.27368 0 7.04271 0 9.99665C0 14.6028 6.3253 13.8685 6.3253 15.8545C6.3253 16.6221 5.65948 16.8725 4.72733 16.8725C3.34575 16.8725 1.58132 16.3051 0.183101 15.5374V19.5093C1.73113 20.1769 3.29581 20.4606 4.72733 20.4606C8.1896 20.4606 10.5699 18.7416 10.5699 15.7543C10.5533 10.781 4.21132 11.6655 4.21132 9.79638Z" fill="white"/>
</svg>
